<svg width="31" height="31" viewBox="0 0 31 31" fill="none" xmlns="http://www.w3.org/2000/svg">
<g filter="url(#filter0_d_54265_1182)">
<path d="M25.5102 13.3428L16.2585 4.09785C16.1919 4.03111 16.1128 3.97815 16.0257 3.94202C15.9386 3.9059 15.8452 3.8873 15.7509 3.8873C15.6566 3.8873 15.5632 3.9059 15.4761 3.94202C15.389 3.97815 15.3099 4.03111 15.2433 4.09785L5.9916 13.3428C5.72207 13.6123 5.56934 13.9784 5.56934 14.3603C5.56934 15.1531 6.21396 15.7978 7.00684 15.7978H7.98164V22.3945C7.98164 22.7921 8.30283 23.1133 8.70039 23.1133H14.3134V18.082H16.829V23.1133H22.8014C23.1989 23.1133 23.5201 22.7921 23.5201 22.3945V15.7978H24.4949C24.8768 15.7978 25.2429 15.6473 25.5124 15.3755C26.0717 14.814 26.0717 13.9043 25.5102 13.3428Z" fill="#7E49FF"/>
</g>
<defs>
<filter id="filter0_d_54265_1182" x="-0.749023" y="-1" width="33" height="33" filterUnits="userSpaceOnUse" color-interpolation-filters="sRGB">
<feFlood flood-opacity="0" result="BackgroundImageFix"/>
<feColorMatrix in="SourceAlpha" type="matrix" values="0 0 0 0 0 0 0 0 0 0 0 0 0 0 0 0 0 0 127 0" result="hardAlpha"/>
<feOffset dy="2"/>
<feGaussianBlur stdDeviation="2.5"/>
<feColorMatrix type="matrix" values="0 0 0 0 0 0 0 0 0 0 0 0 0 0 0 0 0 0 0.25 0"/>
<feBlend mode="normal" in2="BackgroundImageFix" result="effect1_dropShadow_54265_1182"/>
<feBlend mode="normal" in="SourceGraphic" in2="effect1_dropShadow_54265_1182" result="shape"/>
</filter>
</defs>
</svg>
