<svg width="18" height="17" viewBox="0 0 18 17" fill="none" xmlns="http://www.w3.org/2000/svg">
<path d="M13.25 5.66669C13.25 4.53952 12.8022 3.45851 12.0052 2.66148C11.2082 1.86445 10.1272 1.41669 9 1.41669C7.87283 1.41669 6.79183 1.86445 5.9948 2.66148C5.19777 3.45851 4.75 4.53952 4.75 5.66669C4.75 10.625 2.625 12.0417 2.625 12.0417H15.375C15.375 12.0417 13.25 10.625 13.25 5.66669Z" stroke="white" stroke-width="2" stroke-linecap="round" stroke-linejoin="round"/>
<path d="M10.2257 14.875C10.1012 15.0897 9.92246 15.2679 9.7074 15.3918C9.49233 15.5156 9.2485 15.5808 9.00032 15.5808C8.75213 15.5808 8.5083 15.5156 8.29324 15.3918C8.07818 15.2679 7.89943 15.0897 7.7749 14.875" stroke="white" stroke-width="2" stroke-linecap="round" stroke-linejoin="round"/>
</svg>
