<svg width="23" height="23" viewBox="0 0 23 23" fill="none" xmlns="http://www.w3.org/2000/svg">
<path d="M20.6912 13.1172L22.4634 4.29252C22.5914 3.65536 22.1634 3.04862 21.5861 3.04862H6.86041L6.51677 1.1475C6.43114 0.673644 6.06268 0.333344 5.63525 0.333344H1.79138C1.29444 0.333344 0.891602 0.789213 0.891602 1.35157V2.03039C0.891602 2.59275 1.29444 3.04862 1.79138 3.04862H4.41133L7.04498 17.6193C6.41491 18.0293 5.99033 18.7982 5.99033 19.6797C5.99033 20.9919 6.93029 22.0556 8.0898 22.0556C9.24931 22.0556 10.1893 20.9919 10.1893 19.6797C10.1893 19.0147 9.94757 18.4139 9.55853 17.9827H17.4183C17.0293 18.4139 16.7876 19.0147 16.7876 19.6797C16.7876 20.9919 17.7276 22.0556 18.8871 22.0556C20.0466 22.0556 20.9866 20.9919 20.9866 19.6797C20.9866 18.739 20.5034 17.9261 19.8027 17.5412L20.0095 16.5113C20.1375 15.8741 19.7095 15.2674 19.1321 15.2674H9.06894L8.82357 13.9097H19.8138C20.2339 13.9097 20.5981 13.5808 20.6912 13.1172Z" fill="white"/>
</svg>
