<svg width="41" height="40" viewBox="0 0 41 40" fill="none" xmlns="http://www.w3.org/2000/svg">
<rect opacity="0.25" x="0.0605469" width="40" height="40" rx="10" fill="white"/>
<g filter="url(#filter0_d_54232_3680)">
<path d="M17.8809 19.3954C17.2614 19.3954 16.7734 19.9383 16.7734 20.6012C16.7734 21.2617 17.2729 21.8069 17.8809 21.8069C18.4992 21.8069 18.9872 21.2617 18.9872 20.6012C18.9997 19.9372 18.4992 19.3954 17.8809 19.3954ZM21.8443 19.3954C21.2249 19.3954 20.7369 19.9383 20.7369 20.6012C20.7369 21.2617 21.2363 21.8069 21.8443 21.8069C22.4626 21.8069 22.9506 21.2617 22.9506 20.6012C22.9494 19.9372 22.4626 19.3954 21.8443 19.3954Z" fill="white"/>
<path d="M27.1211 10.2857H12.5713C12.2784 10.2865 11.9884 10.3449 11.7181 10.4577C11.4477 10.5705 11.2022 10.7355 10.9956 10.9431C10.7889 11.1508 10.6252 11.3972 10.5138 11.6681C10.4024 11.9391 10.3454 12.2293 10.3462 12.5223V27.2011C10.3462 28.4388 11.3451 29.4377 12.5713 29.4377H24.8833L24.3062 27.4274L25.6971 28.72L27.0102 29.936L29.3462 32V12.5223C29.347 12.2293 29.29 11.9391 29.1786 11.6681C29.0672 11.3972 28.9035 11.1508 28.6968 10.9431C28.4902 10.7355 28.2447 10.5705 27.9743 10.4577C27.704 10.3449 27.414 10.2865 27.1211 10.2857ZM22.9291 24.4651C22.9291 24.4651 22.5382 23.9988 22.2136 23.584C23.6353 23.1817 24.1782 22.2926 24.1782 22.2926C23.7325 22.5851 23.3096 22.7931 22.9291 22.9348C21.5436 23.5147 20.0178 23.6729 18.5428 23.3897C17.9977 23.2826 17.4637 23.1258 16.9473 22.9211C16.675 22.8177 16.4104 22.6951 16.1553 22.5543C16.1222 22.5303 16.0902 22.5211 16.0582 22.4994C16.0411 22.4913 16.0259 22.4796 16.0136 22.4651C15.8182 22.3577 15.7096 22.2823 15.7096 22.2823C15.7096 22.2823 16.2308 23.1508 17.6102 23.5634C17.2845 23.9748 16.8822 24.4651 16.8822 24.4651C14.4833 24.3886 13.5725 22.8148 13.5725 22.8148C13.5725 19.3188 15.1359 16.4857 15.1359 16.4857C16.6993 15.312 18.1862 15.3451 18.1862 15.3451L18.2948 15.4754C16.3405 16.0411 15.4388 16.8983 15.4388 16.8983C15.4388 16.8983 15.6788 16.768 16.0799 16.584C17.2411 16.0743 18.1633 15.9326 18.5439 15.8994C18.6091 15.8891 18.6639 15.8777 18.7291 15.8777C20.6116 15.624 22.5258 15.9818 24.1896 16.8983C24.1896 16.8983 23.3313 16.0846 21.4856 15.52L21.6376 15.3463C21.6376 15.3463 23.1256 15.3131 24.6879 16.4868C24.6879 16.4868 26.2513 19.32 26.2513 22.816C26.2513 22.8148 25.3291 24.3886 22.9291 24.4651Z" fill="white"/>
</g>
<defs>
<filter id="filter0_d_54232_3680" x="1.91748" y="3.85715" width="37.4287" height="37.4286" filterUnits="userSpaceOnUse" color-interpolation-filters="sRGB">
<feFlood flood-opacity="0" result="BackgroundImageFix"/>
<feColorMatrix in="SourceAlpha" type="matrix" values="0 0 0 0 0 0 0 0 0 0 0 0 0 0 0 0 0 0 127 0" result="hardAlpha"/>
<feOffset dy="2"/>
<feGaussianBlur stdDeviation="2.5"/>
<feColorMatrix type="matrix" values="0 0 0 0 0 0 0 0 0 0 0 0 0 0 0 0 0 0 0.15 0"/>
<feBlend mode="normal" in2="BackgroundImageFix" result="effect1_dropShadow_54232_3680"/>
<feBlend mode="normal" in="SourceGraphic" in2="effect1_dropShadow_54232_3680" result="shape"/>
</filter>
</defs>
</svg>
